<svg xmlns="http://www.w3.org/2000/svg" width="180" height="21" viewBox="0 0 180 21">
    <g fill="#DC4541" fill-rule="evenodd">
        <path d="M.149 17.937l1.397-2.42c.237-.38.802-.322 1.01-.176.12.059 2.26 1.604 4.22 1.604 1.19 0 2.052-.728 2.052-1.75 0-1.224-1.04-2.157-3.061-2.945C3.21 11.26 0 9.304 0 5.805 0 2.917 2.29 0 6.866 0c3.092 0 5.469 1.546 6.361 2.188.357.204.297.729.178.933L11.89 5.367c-.209.321-.743.583-1.01.379-.268-.146-2.439-1.75-4.252-1.75-1.07 0-1.873.7-1.873 1.487 0 1.08.893 1.896 3.24 2.83 2.32.904 6.005 2.683 6.005 6.65C14 17.966 11.354 21 6.985 21 3.121 21 .981 19.425.297 18.754c-.297-.291-.386-.409-.148-.817M26 .57c0-.3.27-.57.57-.57h3.57c.33 0 .57.27.57.57v7.56h8.58V.57c0-.3.24-.57.57-.57h3.57c.3 0 .57.27.57.57v19.86c0 .3-.27.57-.57.57h-3.57a.57.57 0 0 1-.57-.57v-7.89h-8.58v7.89c0 .3-.24.57-.57.57h-3.57a.59.59 0 0 1-.57-.57V.57M57 .57c0-.3.23-.57.547-.57h11.906c.317 0 .547.27.547.57v3.27c0 .3-.23.57-.547.57h-7.966v3.72h6.557c.288 0 .547.27.547.57v3.27c0 .33-.259.57-.547.57h-6.557v4.05h7.966c.317 0 .547.27.547.57v3.27c0 .3-.23.57-.547.57H57.547c-.317 0-.547-.27-.547-.57V.57M91.104 8.97c1.224 0 2.27-1.14 2.27-2.4a2.294 2.294 0 0 0-2.27-2.28h-4.417v4.68h4.417zM82 .57c0-.3.239-.57.567-.57h8.926C95.074 0 98 2.91 98 6.48c0 2.76-1.82 4.98-4.418 6.03l4.09 7.62c.209.39 0 .87-.507.87h-3.97a.55.55 0 0 1-.479-.27l-3.97-7.95h-2.06v7.65c0 .3-.268.57-.567.57h-3.552a.568.568 0 0 1-.567-.57V.57zM118.486 16.334c3.212 0 5.841-2.626 5.841-5.805 0-3.208-2.63-5.863-5.841-5.863-3.185 0-5.813 2.655-5.813 5.863 0 3.18 2.628 5.805 5.813 5.805zm0-16.334A10.488 10.488 0 0 1 129 10.529C129 16.362 124.327 21 118.486 21 112.644 21 108 16.362 108 10.529S112.644 0 118.486 0zM141 .57c0-.3.23-.57.547-.57h11.906c.316 0 .547.27.547.57v3.27c0 .3-.23.57-.547.57h-7.966v3.72h6.556c.288 0 .548.27.548.57v3.27c0 .33-.26.57-.548.57h-6.556v4.05h7.966c.316 0 .547.27.547.57v3.27c0 .3-.23.57-.547.57h-11.906c-.317 0-.547-.27-.547-.57V.57M166.15 17.937l1.396-2.42c.238-.38.802-.322 1.01-.176.119.059 2.26 1.604 4.22 1.604 1.19 0 2.052-.728 2.052-1.75 0-1.224-1.04-2.157-3.061-2.945C169.21 11.26 166 9.304 166 5.805 166 2.917 168.29 0 172.866 0c3.092 0 5.469 1.546 6.361 2.188.356.204.297.729.178.933l-1.515 2.246c-.209.321-.744.583-1.012.379-.266-.146-2.436-1.75-4.25-1.75-1.07 0-1.872.7-1.872 1.487 0 1.08.89 1.896 3.24 2.83 2.318.904 6.004 2.683 6.004 6.65 0 3.004-2.646 6.037-7.015 6.037-3.864 0-6.004-1.575-6.688-2.246-.297-.291-.386-.409-.148-.817"/>
    </g>
</svg>
